<svg width="96" height="96" viewBox="0 0 96 96" fill="none" xmlns="http://www.w3.org/2000/svg">
<g filter="url(#filter0_d_801_8)">
<circle cx="48" cy="44" r="44" fill="#3A3054"/>
<path fill-rule="evenodd" clip-rule="evenodd" d="M71.6084 26.0201C71.3272 25.8487 70.9782 25.8308 70.6808 25.9728L63.0566 29.5643C60.3686 30.8303 58.5647 33.4392 58.3292 36.4011L58.1326 38.8368L54.1822 45.3982V42.5966C54.1822 42.5922 54.1811 42.588 54.1799 42.5838C54.1787 42.5794 54.1775 42.575 54.1775 42.5699C54.176 42.4736 54.1606 42.3777 54.131 42.2857L52.293 36.7717L56.0459 29.2684C56.2107 28.9344 56.1726 28.5356 55.9474 28.2386L50.047 20.3713C49.6896 19.937 49.0476 19.8747 48.6129 20.2321C48.562 20.2739 48.5155 20.3207 48.4737 20.3713L42.573 28.2386C42.3496 28.5367 42.3133 28.9351 42.4796 29.2684L46.2325 36.7717L44.3945 42.2857C44.3648 42.3777 44.3495 42.4736 44.348 42.5699V42.5966V46.5213L38.2213 37.2221C38.2173 37.2167 38.2123 37.2123 38.2074 37.2082C38.2028 37.2042 38.1983 37.2004 38.1949 37.1958C38.1356 37.1137 38.0645 37.0416 37.9836 36.9812C37.976 36.9756 37.9686 36.9697 37.9612 36.9638L37.9612 36.9637C37.9506 36.9552 37.94 36.9466 37.9283 36.939C37.9185 36.9325 37.9128 36.9275 37.9079 36.9233C37.9032 36.9192 37.8993 36.9157 37.8932 36.9123L34.2878 34.8275L32.7911 32.5559L30.6275 29.2713C30.3792 28.8948 29.9065 28.7355 29.4809 28.885L25.6544 30.2271C25.1428 30.4091 24.8751 30.9713 25.0571 31.4829C25.0835 31.5579 25.119 31.629 25.1629 31.6953L27.8681 35.8023L29.3601 38.0728L29.8515 42.2092C29.8541 42.2224 29.8574 42.2356 29.8614 42.2484C29.8658 42.2693 29.8709 42.2901 29.8772 42.3103C29.8995 42.4143 29.9387 42.5142 29.9932 42.6054C29.9967 42.6104 29.9985 42.6161 30.0002 42.6217C30.0019 42.6274 30.0037 42.6331 30.0072 42.638L30.6711 43.6439L30.6719 43.6451C33.531 47.9772 44.6405 64.8107 44.7021 64.863C45.4214 66.7523 47.233 68.0007 49.2545 68C49.6559 67.9996 50.0558 67.9509 50.4454 67.8546C51.7125 67.5437 52.8027 66.7395 53.4733 65.62L66.5525 43.9223L68.6176 42.6153C69.7026 41.9254 70.613 40.9941 71.2788 39.894C72.1237 38.4947 72.5346 36.8757 72.4588 35.2428L72.0753 26.8228C72.0636 26.494 71.8886 26.1926 71.6084 26.0201ZM64.4856 43.5444L62.964 46.0709L57.9103 43.0226L59.4337 40.4961L64.4856 43.5444ZM46.3149 43.5799V58.4463L52.2153 48.6604V43.5799H46.3149ZM48.0076 37.6795H50.5231L51.8337 41.613H46.6965L48.0076 37.6795ZM48.2818 29.8122C48.2818 30.3553 48.722 30.7955 49.2651 30.7955C49.8082 30.7955 50.2488 30.3553 50.2488 29.8122C50.2488 29.2691 49.8082 28.8289 49.2651 28.8289C48.722 28.8289 48.2818 29.2691 48.2818 29.8122ZM49.2651 22.6008L54.0142 28.9322L50.6241 35.7126H50.2484V32.5815C51.7847 32.0384 52.59 30.3527 52.0465 28.8165C51.5034 27.2802 49.8181 26.4753 48.2818 27.0184C46.7456 27.5615 45.9407 29.2471 46.4837 30.7834C46.7807 31.6235 47.4418 32.2845 48.2818 32.5815V35.7126H47.9061L44.5161 28.9322L49.2651 22.6008ZM35.2407 38.0088L35.53 37.818L33.1009 36.4117C32.9691 36.3352 32.8567 36.2293 32.7724 36.1019L31.6906 34.4598L30.0485 35.5416L31.13 37.1837C31.2142 37.3111 31.2673 37.4561 31.2856 37.6077L31.6189 40.3946L35.2407 38.0088ZM29.408 30.9921L30.6077 32.8144L28.9657 33.8962L27.4906 31.6641L29.408 30.9921ZM37.1153 39.1231L34.6566 40.7469L32.1931 42.3714L44.348 60.8212V50.0952L37.1153 39.1231ZM51.7916 64.5983C50.9578 65.9983 49.1472 66.4575 47.7472 65.6237C46.3471 64.7902 45.8883 62.9792 46.7218 61.5792L46.7271 61.5707L46.7397 61.5499L54.1654 49.2346H54.1822V49.2082L56.8944 44.709L59.4209 46.2353L61.951 47.7555L51.7916 64.5983ZM67.5706 40.9472C68.3975 40.4221 69.0918 39.7124 69.599 38.8745C70.2435 37.8066 70.5567 36.5717 70.4992 35.3263L70.3959 33.0642L68.0986 33.6336C66.6082 33.9987 65.4542 35.1783 65.1217 36.6765C65.0214 37.1254 64.6229 37.4448 64.163 37.4455C64.0905 37.4455 64.0183 37.4371 63.9476 37.4206C63.4177 37.302 63.0845 36.7764 63.2031 36.2465C63.6957 34.0185 65.4118 32.2644 67.6284 31.7231L70.0103 31.1328C70.1073 31.1134 70.2069 31.1093 70.3054 31.1199L70.1802 28.3792L63.8865 31.3422C61.8375 32.3079 60.4624 34.2965 60.2822 36.5545L60.12 38.6196L62.972 40.3368L65.8237 42.0536L67.5706 40.9472Z" fill="#2BD0D0"/>
</g>
<defs>
<filter id="filter0_d_801_8" x="0" y="0" width="96" height="96" filterUnits="userSpaceOnUse" color-interpolation-filters="sRGB">
<feFlood flood-opacity="0" result="BackgroundImageFix"/>
<feColorMatrix in="SourceAlpha" type="matrix" values="0 0 0 0 0 0 0 0 0 0 0 0 0 0 0 0 0 0 127 0" result="hardAlpha"/>
<feOffset dy="4"/>
<feGaussianBlur stdDeviation="2"/>
<feComposite in2="hardAlpha" operator="out"/>
<feColorMatrix type="matrix" values="0 0 0 0 0 0 0 0 0 0 0 0 0 0 0 0 0 0 0.25 0"/>
<feBlend mode="normal" in2="BackgroundImageFix" result="effect1_dropShadow_801_8"/>
<feBlend mode="normal" in="SourceGraphic" in2="effect1_dropShadow_801_8" result="shape"/>
</filter>
</defs>
</svg>
